# xmcd
#
# Track frame offsets:
#	150
#	28262
#	39825
#	57737
#	73472
#	87172
#	105910
#	121445
#	144242
#
# Disc length: 2135 seconds
#
# Revision: 0
# Processed by: cddbd v1.5.2PL0 Copyright (c) Steve Scherf et al.
# Submitted via: EasyCDDAExtractor 10.0.2.1
#
DISCID=7c085509
DTITLE=Noite Ilustrada - oOo
DYEAR=1990
DGENRE=Samba
TTITLE0=Pot Pourri Noite Ilustrada
TTITLE1=Agua Bebida
TTITLE2=Samba do Amigo
TTITLE3=Mariazinha Nazaré
TTITLE4=Menor Abandonado
TTITLE5=Minha Rainha
TTITLE6=Como Eu Era Importante ao Lado Dela
TTITLE7=Pot Pourri Nelson Cavaquinho
TTITLE8=Vivência
EXTD=YEAR: 1990\n
EXTT0=
EXTT1=
EXTT2=
EXTT3=
EXTT4=
EXTT5=
EXTT6=
EXTT7=
EXTT8=
PLAYORDER=
